<svg id="Capa_1" enable-background="new 0 0 512 512" height="512" viewBox="0 0 512 512" width="512" xmlns="http://www.w3.org/2000/svg"><g><path d="m376 196.5c-.012-127.664.028-119.965-.031-120.921-.528-8.472-7.334-11.952-7.434-12.05l-105-61c-4.659-2.706-10.411-2.706-15.07 0-114.171 66.33-106.348 61.407-108.649 63.982-2.45 2.743-3.816 6.322-3.816 9.989v120c0 5.383 2.884 10.353 7.558 13.023 111.142 62.692 105.222 61.977 112.442 61.977 7.449 0 3.012-.25 112.442-61.977 4.674-2.67 7.558-7.64 7.558-13.023zm-120-163.652 74.955 43.545-74.955 42.831-74.955-42.831zm-90 69.5 75 42.857v85.448l-75-42.857zm180 85.447-75 42.857v-85.448l75-42.857z"/><path d="m161.747 289.662c-19.207-19.045-46.022-25.945-70.747-20.708v-101.954c0-25.089-20.411-45.5-45.5-45.5s-45.5 20.411-45.5 45.5v164.233c0 22.585 9.22 44.637 25.295 60.501l70.978 70.044v34.722c0 8.284 6.716 15 15 15h114.727c8.284 0 15-6.716 15-15v-101.166c0-17.212-7.01-34.035-19.232-46.156zm49.253 191.838h-84.727v-25.994c0-4.013-1.608-7.858-4.464-10.677l-75.441-74.449c-10.402-10.264-16.368-24.533-16.368-39.147v-164.233c0-8.547 6.953-15.5 15.5-15.5s15.5 6.953 15.5 15.5v115.462c-3.006 2.232-5.883 4.708-8.606 7.432-5.858 5.858-5.858 15.355 0 21.213l67.5 67.5c5.857 5.858 15.355 5.858 21.213 0s5.858-15.355 0-21.213l-55.172-55.172c17.719-8.834 39.892-5.928 54.689 8.744l60.021 59.516c6.582 6.526 10.356 15.585 10.356 24.854v86.164z"/><path d="m466.5 121.5c-25.089 0-45.5 20.411-45.5 45.5v101.954c-24.721-5.232-51.542 1.665-70.747 20.709l-60.021 59.517c-12.222 12.119-19.232 28.942-19.232 46.154v101.166c0 8.284 6.716 15 15 15h114.727c8.284 0 15-6.716 15-15v-34.722l70.978-70.044c16.075-15.864 25.295-37.916 25.295-60.501v-164.233c0-25.089-20.411-45.5-45.5-45.5zm15.5 209.733c0 14.614-5.966 28.883-16.368 39.147l-75.442 74.449c-2.856 2.819-4.464 6.664-4.464 10.677v25.994h-84.726v-86.166c0-9.268 3.774-18.327 10.355-24.853l60.021-59.516c14.796-14.673 36.967-17.581 54.688-8.744l-55.171 55.172c-5.858 5.858-5.858 15.355 0 21.213 5.857 5.858 15.355 5.858 21.213 0l67.5-67.5c5.858-5.858 5.858-15.355 0-21.213-2.723-2.723-5.601-5.2-8.606-7.432v-115.461c0-8.547 6.953-15.5 15.5-15.5s15.5 6.953 15.5 15.5z"/></g></svg>